HIERARCHY
ROOT Hips
{
  OFFSET 0.000000 0.000000 0.000000
  CHANNELS 6 Xposition Yposition Zposition Zrotation Yrotation Xrotation
  JOINT Spine
  {
    OFFSET 0.064805 2.024372 -0.084724
    CHANNELS 3 Zrotation Yrotation Xrotation
    JOINT Spine1
    {
      OFFSET 0.000151 1.967109 0.180687
      CHANNELS 3 Zrotation Yrotation Xrotation
      JOINT Spine2
      {
        OFFSET -0.032903 1.990722 0.223417
        CHANNELS 3 Zrotation Yrotation Xrotation
        JOINT Neck
        {
          OFFSET -0.299607 1.682932 -0.130414
          CHANNELS 3 Zrotation Yrotation Xrotation
          JOINT Head
          {
            OFFSET 0.229728 1.749061 -0.101477
            CHANNELS 3 Zrotation Yrotation Xrotation
            End Site
            {
              OFFSET 0 0 0
            }
          }
        }
        JOINT LeftShoulder
        {
          OFFSET 3.379679 1.028929 0.311469
          CHANNELS 3 Zrotation Yrotation Xrotation
          JOINT LeftArm
          {
            OFFSET 5.198070 -0.000000 -0.000000
            CHANNELS 3 Zrotation Yrotation Xrotation
            JOINT LeftForeArm
            {
              OFFSET 3.093700 -0.000000 -0.000000
              CHANNELS 3 Zrotation Yrotation Xrotation
              JOINT LeftHand
              {
                OFFSET 0.672632 -0.000000 -0.000000
                CHANNELS 3 Zrotation Yrotation Xrotation
                JOINT LeftHandIndex1
                {
                  OFFSET 0.542293 -0.000000 -0.000000
                  CHANNELS 3 Zrotation Yrotation Xrotation
                  End Site
                  {
                    OFFSET 0 0 0
                  }
                }
              }
            }
          }
        }
        JOINT RightShoulder
        {
          OFFSET -3.382536 0.963552 -0.161199
          CHANNELS 3 Zrotation Yrotation Xrotation
          JOINT RightArm
          {
            OFFSET -5.452220 -0.000000 -0.000000
            CHANNELS 3 Zrotation Yrotation Xrotation
            JOINT RightForeArm
            {
              OFFSET -3.012840 -0.000000 -0.000000
              CHANNELS 3 Zrotation Yrotation Xrotation
              JOINT RightHand
              {
                OFFSET -0.622296 -0.000000 -0.000000
                CHANNELS 3 Zrotation Yrotation Xrotation
                JOINT RightHandIndex1
                {
                  OFFSET -0.501711 -0.000000 -0.000000
                  CHANNELS 3 Zrotation Yrotation Xrotation
                  End Site
                  {
                    OFFSET 0 0 0
                  }
                }
              }
            }
          }
        }
      }
    }
  }
  JOINT LeftUpLeg
  {
    OFFSET 2.290470 -6.293021 0.000000
    CHANNELS 3 Zrotation Yrotation Xrotation
    JOINT LeftLeg
    {
      OFFSET 2.522651 -6.930931 0.000000
      CHANNELS 3 Zrotation Yrotation Xrotation
      JOINT LeftFoot
      {
        OFFSET 0.176329 -0.484458 2.026562
        CHANNELS 3 Zrotation Yrotation Xrotation
        JOINT LeftToeBase
        {
          OFFSET 0.000000 -0.000000 1.049890
          CHANNELS 3 Zrotation Yrotation Xrotation
          End Site
          {
            OFFSET 0 0 0
          }
        }
      }
    }
  }
  JOINT RightUpLeg
  {
    OFFSET -2.272802 -6.244476 0.000000
    CHANNELS 3 Zrotation Yrotation Xrotation
    JOINT RightLeg
    {
      OFFSET -2.508340 -6.891614 0.000000
      CHANNELS 3 Zrotation Yrotation Xrotation
      JOINT RightFoot
      {
        OFFSET -0.269668 -0.740904 2.087406
        CHANNELS 3 Zrotation Yrotation Xrotation
        JOINT RightToeBase
        {
          OFFSET -0.000000 -0.000000 1.106140
          CHANNELS 3 Zrotation Yrotation Xrotation
          End Site
          {
            OFFSET 0 0 0
          }
        }
      }
    }
  }
}
MOTION
Frames: 5
Frame Time: 0.00833333
-3.878150 15.518800 36.263100 -156.762000 -73.527100 179.585000 -23.099800 12.970300 -50.721400 0.000000 0.000000 44.594100 -1.477010 0.000000 -20.108300 0.000000 0.000000 -16.982300 24.324600 -1.448550 -37.464900 0.000000 0.000000 54.375700 -6.850660 0.000000 -22.214200 0.000000 0.000000 -21.877200 1.479190 2.152850 0.692740 -0.415813 2.791500 -6.197600 -1.433130 1.226140 -6.738440 -27.817800 -8.309150 8.352410 26.650700 -8.899760 -2.716750 -0.000000 -0.000000 0.000000 89.554500 -16.022300 -34.483800 0.000000 0.000000 34.704000 -5.871310 0.000000 9.000130 0.000000 0.000000 7.125020 -0.000000 -0.000000 0.000000 -100.493000 16.672400 -28.265200 0.000000 0.000000 35.961700 8.990700 0.000000 -8.201950 0.000000 0.000000 7.125020
-3.867000 15.518300 36.262800 -156.839000 -73.454300 179.654000 -23.368100 13.539800 -50.856300 0.000000 0.000000 44.594200 -2.161140 0.000000 -20.077500 0.000000 0.000000 -16.319800 24.419400 -1.959940 -36.370800 0.000000 0.000000 54.162800 -7.721730 0.000000 -22.037100 0.000000 0.000000 -21.696200 1.509700 2.217170 0.472821 -0.445733 2.870310 -6.231680 -1.477320 1.262350 -6.642200 -27.818500 -8.354780 8.299510 26.540000 -8.917360 -2.639200 0.000000 -0.000000 0.000000 90.465200 -17.294100 -35.022000 0.000000 0.000000 35.216700 -9.011910 0.000000 4.411050 0.000000 0.000000 7.125020 0.000000 -0.000000 0.000000 -100.842000 17.450400 -28.712000 0.000000 0.000000 36.730000 8.572120 0.000000 -8.353890 0.000000 0.000000 7.125020
-3.857510 15.522300 36.264800 -157.029000 -73.412700 179.840000 -23.605500 13.929500 -50.929300 0.000000 0.000000 44.532100 -2.738020 0.000000 -19.994000 0.000000 0.000000 -15.457800 24.400500 -2.276050 -35.238100 0.000000 0.000000 53.816400 -8.635270 0.000000 -21.791700 0.000000 0.000000 -21.229400 1.503610 2.241440 0.260799 -0.418554 2.895430 -6.296590 -1.439370 1.274130 -6.589940 -27.992100 -8.348790 8.357730 26.573500 -8.928880 -2.570860 0.000000 -0.000000 0.000000 91.270200 -18.096200 -35.516100 0.000000 0.000000 35.872800 -9.849340 0.000000 0.839882 0.000000 0.000000 7.125020 0.000000 -0.000000 0.000000 -101.170000 18.112100 -29.212700 0.000000 0.000000 37.367900 7.916070 0.000000 -8.686270 0.000000 0.000000 7.125020
-3.847490 15.524300 36.266800 -157.240000 -73.465500 180.071000 -23.885500 14.230300 -51.049900 0.000000 0.000000 44.486700 -3.236300 0.000000 -19.901600 0.000000 0.000000 -15.037500 24.380100 -2.816400 -34.193500 0.000000 0.000000 53.450100 -9.422210 0.000000 -21.477900 0.000000 0.000000 -20.726000 1.555880 2.277270 -0.003757 -0.471680 2.933240 -6.346810 -1.515260 1.287570 -6.484400 -27.978700 -8.382210 8.346550 26.492000 -8.947060 -2.513920 0.000000 0.000000 0.000000 92.153000 -19.271200 -36.045400 0.000000 0.000000 36.488400 -11.587000 0.000000 -3.849830 0.000000 0.000000 7.125020 0.000000 0.000000 0.000000 -101.329000 18.329800 -29.519400 0.000000 0.000000 37.827900 8.139470 0.000000 -8.587340 0.000000 0.000000 7.125020
-3.836860 15.523800 36.268700 -157.436000 -73.477200 180.276000 -24.137800 14.549600 -51.165200 0.000000 0.000000 44.449800 -3.743140 0.000000 -19.801200 0.000000 0.000000 -14.449100 24.355600 -3.335530 -33.104300 0.000000 0.000000 53.026200 -10.192000 0.000000 -21.160100 0.000000 0.000000 -20.193900 1.593160 2.322560 -0.240812 -0.503494 2.984640 -6.402030 -1.562390 1.308880 -6.401440 -28.023000 -8.409220 8.364350 26.446500 -8.968250 -2.454130 -0.000000 -0.000000 0.000000 92.905300 -20.151400 -36.496300 0.000000 0.000000 37.046500 -12.759300 0.000000 -7.734870 0.000000 0.000000 7.125020 -0.000000 -0.000000 0.000000 -101.487000 18.629800 -29.860900 0.000000 0.000000 38.312000 8.394000 0.000000 -8.413500 0.000000 0.000000 7.125020
